<svg xmlns="http://www.w3.org/2000/svg" width="23" height="23" viewBox="0 0 23 23">
  <path id="Botó_buscar" data-name="Botó buscar" d="M157.745-801.614l-8.4-8.4a7.645,7.645,0,0,1-2.308,1.3,7.923,7.923,0,0,1-2.7.469,7.9,7.9,0,0,1-5.806-2.375,7.894,7.894,0,0,1-2.376-5.8,7.9,7.9,0,0,1,2.375-5.806,7.892,7.892,0,0,1,5.8-2.377,7.9,7.9,0,0,1,5.806,2.376,7.894,7.894,0,0,1,2.377,5.805,7.848,7.848,0,0,1-.481,2.738,7.654,7.654,0,0,1-1.284,2.269l8.4,8.4Zm-13.409-8.644a5.959,5.959,0,0,0,4.38-1.794,5.959,5.959,0,0,0,1.794-4.38,5.96,5.96,0,0,0-1.794-4.38,5.959,5.959,0,0,0-4.38-1.794,5.959,5.959,0,0,0-4.38,1.794,5.96,5.96,0,0,0-1.795,4.38,5.959,5.959,0,0,0,1.795,4.38A5.959,5.959,0,0,0,144.336-810.258Z" transform="translate(-136.155 824.614)"/>
</svg>
