<svg xmlns="http://www.w3.org/2000/svg" width="31.161" height="23" viewBox="0 0 31.161 23">
  <path id="Botó_idiomes" data-name="Botó idiomes" d="M12.934,15.555v7.516h8.194v2.419H12.934v7.742H22.1v2.419H10V13.136H22.1v2.419ZM33.676,35.878a9.617,9.617,0,0,1-3.984-.79,6.639,6.639,0,0,1-2.758-2.194A5.62,5.62,0,0,1,25.9,29.652h3.129a4.12,4.12,0,0,0,1.306,2.661,4.689,4.689,0,0,0,3.339,1.081,4.879,4.879,0,0,0,3.306-1.048,3.4,3.4,0,0,0,1.21-2.694,3.057,3.057,0,0,0-.71-2.1,4.534,4.534,0,0,0-1.774-1.226,27.721,27.721,0,0,0-2.871-.9,25.283,25.283,0,0,1-3.565-1.161,5.741,5.741,0,0,1-2.29-1.823,5.354,5.354,0,0,1-.952-3.339,5.785,5.785,0,0,1,.935-3.258A6.094,6.094,0,0,1,29.6,13.652a9.256,9.256,0,0,1,3.887-.774,8.142,8.142,0,0,1,5.177,1.581,5.839,5.839,0,0,1,2.274,4.194H37.709a3.48,3.48,0,0,0-1.355-2.274,4.813,4.813,0,0,0-3.161-.984,4.58,4.58,0,0,0-3,.952,3.249,3.249,0,0,0-1.161,2.661,2.884,2.884,0,0,0,.694,2,4.471,4.471,0,0,0,1.71,1.177q1.016.4,2.855.919a26.813,26.813,0,0,1,3.581,1.21,5.972,5.972,0,0,1,2.323,1.839,5.347,5.347,0,0,1,.968,3.371,5.919,5.919,0,0,1-.871,3.1,6.4,6.4,0,0,1-2.581,2.355A8.516,8.516,0,0,1,33.676,35.878Z" transform="translate(-9.999 -12.878)"/>
</svg>
