<svg xmlns="http://www.w3.org/2000/svg" width="20.38" height="20.863" viewBox="0 0 20.38 20.863">
  <path id="Botó_Twittter" data-name="Botó Twittter" d="M.011,20.866c.483-.568.962-1.14,1.448-1.705q3.179-3.7,6.362-7.395c.044-.051.085-.1.136-.166L0,.021C.076.015.126.008.176.008c1.908,0,3.815,0,5.723,0a.294.294,0,0,1,.275.155Q8.684,3.818,11.2,7.474c.041.06.085.119.141.2.348-.4.683-.791,1.018-1.18q2.7-3.141,5.4-6.286a.511.511,0,0,1,.449-.2c.493.013.986,0,1.527,0L12.141,8.837c.044.067.079.123.117.178q4.005,5.83,8.01,11.661c.042.06.075.127.112.191H14.31c-.024-.041-.045-.083-.072-.122q-2.69-3.917-5.381-7.833c-.029-.043-.066-.081-.106-.13-.063.072-.118.132-.17.193Q6.41,15.5,4.239,18.021q-1.22,1.42-2.436,2.844H.011ZM2.449,1.36c.059.092.1.154.137.213q.471.676.944,1.351,5.76,8.239,11.517,16.48a.351.351,0,0,0,.332.17c.767-.008,1.534,0,2.3,0h.252c-.251-.36-.471-.675-.692-.99q-5.952-8.515-11.9-17.031A.365.365,0,0,0,5,1.355c-.679.012-1.357.005-2.036.005H2.449Z" transform="translate(0 -0.003)"/>
</svg>
