<svg xmlns="http://www.w3.org/2000/svg" width="51.363" height="9" viewBox="0 0 51.363 9">
  <g id="Grupo_78" data-name="Grupo 78" transform="translate(-140.241 -613)">
    <path id="Icono_estrella_negre" data-name="Icono estrella negre" d="M130.659-779.842l.773-3.328-2.582-2.238,3.407-.3,1.329-3.138,1.329,3.138,3.407.3-2.582,2.238.773,3.328-2.927-1.766Z" transform="translate(11.391 1401.842)"/>
    <path id="Icono_estrella_negre-2" data-name="Icono estrella negre" d="M130.659-779.842l.773-3.328-2.582-2.238,3.407-.3,1.329-3.138,1.329,3.138,3.407.3-2.582,2.238.773,3.328-2.927-1.766Z" transform="translate(21.863 1401.842)"/>
    <path id="Icono_estrella_negre-3" data-name="Icono estrella negre" d="M130.659-779.842l.773-3.328-2.582-2.238,3.407-.3,1.329-3.138,1.329,3.138,3.407.3-2.582,2.238.773,3.328-2.927-1.766Z" transform="translate(32.336 1401.842)"/>
    <path id="Icono_estrella_negre-4" data-name="Icono estrella negre" d="M130.659-779.842l.773-3.328-2.582-2.238,3.407-.3,1.329-3.138,1.329,3.138,3.407.3-2.582,2.238.773,3.328-2.927-1.766Z" transform="translate(42.809 1401.842)"/>
    <path id="Icono_estrella_negre-5" data-name="Icono estrella negre" d="M130.659-779.842l.773-3.328-2.582-2.238,3.407-.3,1.329-3.138,1.329,3.138,3.407.3-2.582,2.238.773,3.328-2.927-1.766Z" transform="translate(53.281 1401.842)"/>
  </g>
</svg>
