<svg xmlns="http://www.w3.org/2000/svg" width="94.523" height="14.867" viewBox="0 0 94.523 14.867">
  <g id="Grupo_79" data-name="Grupo 79" transform="translate(-107 -806.136)">
    <path id="Icono_estrella" data-name="Icono estrella" d="M138.554-771.581l2.892-1.744,2.892,1.759-.764-3.295,2.556-2.2-3.358-.3-1.327-3.116-1.323,3.106-3.358.289,2.556,2.214Zm-1.9,2.62,1.271-5.451L133.7-778.07l5.574-.484,2.176-5.135,2.18,5.135,5.57.484-4.231,3.658,1.275,5.451-4.793-2.895ZM141.446-775.792Z" transform="translate(-26.696 1589.964)"/>
    <path id="Icono_estrella-2" data-name="Icono estrella" d="M138.554-771.581l2.892-1.744,2.892,1.759-.764-3.295,2.556-2.2-3.358-.3-1.327-3.116-1.323,3.106-3.358.289,2.556,2.214Zm-1.9,2.62,1.271-5.451L133.7-778.07l5.574-.484,2.176-5.135,2.18,5.135,5.57.484-4.231,3.658,1.275,5.451-4.793-2.895ZM141.446-775.792Z" transform="translate(-6.941 1589.964)"/>
    <path id="Icono_estrella-3" data-name="Icono estrella" d="M138.554-771.581l2.892-1.744,2.892,1.759-.764-3.295,2.556-2.2-3.358-.3-1.327-3.116-1.323,3.106-3.358.289,2.556,2.214Zm-1.9,2.62,1.271-5.451L133.7-778.07l5.574-.484,2.176-5.135,2.18,5.135,5.57.484-4.231,3.658,1.275,5.451-4.793-2.895ZM141.446-775.792Z" transform="translate(12.814 1589.825)"/>
    <path id="Icono_estrella-4" data-name="Icono estrella" d="M138.554-771.581l2.892-1.744,2.892,1.759-.764-3.295,2.556-2.2-3.358-.3-1.327-3.116-1.323,3.106-3.358.289,2.556,2.214Zm-1.9,2.62,1.271-5.451L133.7-778.07l5.574-.484,2.176-5.135,2.18,5.135,5.57.484-4.231,3.658,1.275,5.451-4.793-2.895ZM141.446-775.792Z" transform="translate(32.57 1589.825)"/>
    <path id="Icono_estrella-5" data-name="Icono estrella" d="M138.554-771.581l2.892-1.744,2.892,1.759-.764-3.295,2.556-2.2-3.358-.3-1.327-3.116-1.323,3.106-3.358.289,2.556,2.214Zm-1.9,2.62,1.271-5.451L133.7-778.07l5.574-.484,2.176-5.135,2.18,5.135,5.57.484-4.231,3.658,1.275,5.451-4.793-2.895ZM141.446-775.792Z" transform="translate(52.326 1589.964)"/>
  </g>
</svg>
