<svg xmlns="http://www.w3.org/2000/svg" width="11.667" height="13" viewBox="0 0 11.667 13">
  <path id="Icono_compartir" data-name="Icono compartir" d="M139.835-857a1.769,1.769,0,0,1-1.3-.535,1.767,1.767,0,0,1-.535-1.3,1.759,1.759,0,0,1,.02-.259,1.327,1.327,0,0,1,.06-.247l-4.931-2.887a1.968,1.968,0,0,1-.6.411,1.756,1.756,0,0,1-.714.148,1.768,1.768,0,0,1-1.3-.534,1.767,1.767,0,0,1-.535-1.3,1.769,1.769,0,0,1,.535-1.3,1.767,1.767,0,0,1,1.3-.535,1.756,1.756,0,0,1,.714.148,1.966,1.966,0,0,1,.6.411l4.931-2.887a1.326,1.326,0,0,1-.06-.246,1.76,1.76,0,0,1-.02-.259,1.768,1.768,0,0,1,.535-1.3,1.767,1.767,0,0,1,1.3-.535,1.769,1.769,0,0,1,1.3.535,1.766,1.766,0,0,1,.535,1.3,1.769,1.769,0,0,1-.535,1.3,1.767,1.767,0,0,1-1.3.535,1.756,1.756,0,0,1-.714-.148,1.966,1.966,0,0,1-.6-.411L133.588-864a1.329,1.329,0,0,1,.06.246,1.745,1.745,0,0,1,.02.258,1.773,1.773,0,0,1-.02.259,1.329,1.329,0,0,1-.06.247l4.931,2.887a1.967,1.967,0,0,1,.6-.411,1.758,1.758,0,0,1,.714-.148,1.768,1.768,0,0,1,1.3.534,1.767,1.767,0,0,1,.535,1.3,1.77,1.77,0,0,1-.535,1.3A1.766,1.766,0,0,1,139.835-857Z" transform="translate(-130.001 869.999)"/>
</svg>
