<svg xmlns="http://www.w3.org/2000/svg" width="31" height="31" viewBox="0 0 31 31">
  <g id="Imatge_usuari_1" data-name="Imatge usuari 1" transform="translate(-168 -539)">
    <g id="Usuari" transform="translate(168 539)">
      <g id="Cercle_usuari" data-name="Cercle usuari" fill="#fff" stroke="#838383" stroke-width="1">
        <circle cx="15.5" cy="15.5" r="15.5" stroke="none"/>
        <circle cx="15.5" cy="15.5" r="15" fill="none"/>
      </g>
      <path id="Icono_persona" data-name="Icono persona" d="M189.661-763.29a4.341,4.341,0,0,1-3.184-1.324,4.341,4.341,0,0,1-1.324-3.184,4.341,4.341,0,0,1,1.324-3.184,4.341,4.341,0,0,1,3.184-1.324,4.341,4.341,0,0,1,3.184,1.324,4.341,4.341,0,0,1,1.324,3.184,4.341,4.341,0,0,1-1.324,3.184A4.341,4.341,0,0,1,189.661-763.29ZM180-753.481v-2.863a3.2,3.2,0,0,1,.514-1.752,3.431,3.431,0,0,1,1.373-1.24,18.685,18.685,0,0,1,3.853-1.4,16.682,16.682,0,0,1,3.92-.468,16.681,16.681,0,0,1,3.92.468,18.684,18.684,0,0,1,3.853,1.4,3.431,3.431,0,0,1,1.373,1.24,3.2,3.2,0,0,1,.514,1.752v2.863Z" transform="translate(-173.68 777.633)" fill="#838383"/>
    </g>
  </g>
</svg>
