<svg id="Notificacions" xmlns="http://www.w3.org/2000/svg" width="13.49" height="16" viewBox="0 0 13.49 16">
  <path id="Icono_notificacions" data-name="Icono notificacions" d="M6.742,11.5H9.873c.8,0,1.592,0,2.388,0,.76,0,1.289-.492,1.22-1.123a1.11,1.11,0,0,0-.508-.734,3.512,3.512,0,0,1-1.481-2.567c-.044-.6-.017-1.212-.029-1.819a4.3,4.3,0,0,0-.048-.671A4.4,4.4,0,0,0,7.54,1.214c-.1-.015-.127-.053-.124-.133.005-.175.006-.35,0-.525A.628.628,0,0,0,6.739,0a.626.626,0,0,0-.664.552c-.007.17-.008.341,0,.512,0,.1-.028.137-.151.154a4.28,4.28,0,0,0-3.9,3.85c-.012.552,0,1.105,0,1.658a3.451,3.451,0,0,1-.5,1.817A4,4,0,0,1,.45,9.7a.916.916,0,0,0-.422,1.011,1.159,1.159,0,0,0,1.226.793H6.742Z" transform="translate(0.002 0)" fill="#fff"/>
  <path id="Icono_notificacions-2" data-name="Icono notificacions" d="M104.881,338.975a10.8,10.8,0,0,1-1.528-.528,4.064,4.064,0,0,1-2.1-2.7.993.993,0,0,1-.013-.124h8.236a3.736,3.736,0,0,1-.568,1.4,4.162,4.162,0,0,1-2.958,1.911.621.621,0,0,0-.12.045h-.949Z" transform="translate(-98.611 -322.976)"/>
  <path id="Icono_notificacions-3" data-name="Icono notificacions" d="M6.738,11.5H1.251a1.159,1.159,0,0,1-1.226-.793A.916.916,0,0,1,.446,9.7,4,4,0,0,0,1.516,8.543a3.45,3.45,0,0,0,.5-1.817c0-.553-.008-1.105,0-1.658a4.28,4.28,0,0,1,3.9-3.85c.124-.018.156-.055.151-.154-.008-.17-.007-.341,0-.512A.626.626,0,0,1,6.735,0,.628.628,0,0,1,7.41.556c.007.175.006.35,0,.525,0,.08.021.117.124.133A4.4,4.4,0,0,1,11.411,4.59a4.244,4.244,0,0,1,.048.671c.012.606-.016,1.215.029,1.819a3.511,3.511,0,0,0,1.481,2.567,1.109,1.109,0,0,1,.508.734c.069.631-.46,1.119-1.22,1.123-.8,0-1.592,0-2.388,0H6.738Z" transform="translate(0.006 0)"/>
</svg>
