<svg id="Opcions" xmlns="http://www.w3.org/2000/svg" width="2.889" height="14" viewBox="0 0 2.889 14">
  <path id="Icono_opcions" data-name="Icono opcions" d="M421.445-756.767a1.391,1.391,0,0,1-1.02-.424,1.391,1.391,0,0,1-.424-1.02,1.391,1.391,0,0,1,.424-1.02,1.391,1.391,0,0,1,1.02-.424,1.391,1.391,0,0,1,1.02.424,1.39,1.39,0,0,1,.424,1.02,1.391,1.391,0,0,1-.424,1.02A1.391,1.391,0,0,1,421.445-756.767Zm0-5.556a1.391,1.391,0,0,1-1.02-.424,1.391,1.391,0,0,1-.424-1.02,1.391,1.391,0,0,1,.424-1.02,1.391,1.391,0,0,1,1.02-.424,1.391,1.391,0,0,1,1.02.424,1.391,1.391,0,0,1,.424,1.02,1.391,1.391,0,0,1-.424,1.02,1.391,1.391,0,0,1-1.02.424Zm0-5.556a1.391,1.391,0,0,1-1.02-.424,1.391,1.391,0,0,1-.424-1.02,1.391,1.391,0,0,1,.424-1.02,1.391,1.391,0,0,1,1.02-.424,1.391,1.391,0,0,1,1.02.424,1.391,1.391,0,0,1,.424,1.02,1.391,1.391,0,0,1-.424,1.02A1.391,1.391,0,0,1,421.445-767.878Z" transform="translate(-420.001 770.767)"/>
</svg>
